solid Visualization Toolkit generated SLA File
 facet normal -0.477228 -0.621391 -0.621391
  outer loop
   vertex 0.3125 0 0
   vertex 0 0 0.24
   vertex 0 0.24 0
  endloop
 endfacet
 facet normal 0.477228 0.621391 0.621391
  outer loop
   vertex 0.625 0.24 0.48
   vertex 0.625 0.48 0.24
   vertex 0.3125 0.48 0.48
  endloop
 endfacet
 facet normal 0.477228 0.621391 0.621391
  outer loop
   vertex 1.25 0 0.24
   vertex 1.25 0.24 0
   vertex 0.9375 0.48 0
  endloop
 endfacet
 facet normal 0.477228 0.621391 0.621391
  outer loop
   vertex 1.25 0 0.24
   vertex 0.9375 0.48 0
   vertex 0.625 0.48 0.24
  endloop
 endfacet
 facet normal 0.477228 0.621391 0.621391
  outer loop
   vertex 1.25 0 0.24
   vertex 0.625 0.48 0.24
   vertex 0.9375 0 0.48
  endloop
 endfacet
 facet normal 0.477228 0.621391 0.621391
  outer loop
   vertex 0.625 0.24 0.48
   vertex 0.9375 0 0.48
   vertex 0.625 0.48 0.24
  endloop
 endfacet
 facet normal -0.477228 -0.621391 -0.621391
  outer loop
   vertex 1.25 0.24 0.48
   vertex 0.9375 0.48 0.48
   vertex 1.25 0.48 0.24
  endloop
 endfacet
 facet normal 0.477228 0.621391 0.621391
  outer loop
   vertex 0.3125 0.48 0.48
   vertex 0 0.96 0.24
   vertex 0 0.72 0.48
  endloop
 endfacet
 facet normal 0.477228 0.621391 0.621391
  outer loop
   vertex 0.625 0.48 0.24
   vertex 0 0.96 0.24
   vertex 0.3125 0.48 0.48
  endloop
 endfacet
 facet normal 0.477228 0.621391 0.621391
  outer loop
   vertex 0.625 0.48 0.24
   vertex 0.3125 0.96 0
   vertex 0 0.96 0.24
  endloop
 endfacet
 facet normal 0.477228 0.621391 0.621391
  outer loop
   vertex 0.625 0.48 0.24
   vertex 0.625 0.72 0
   vertex 0.3125 0.96 0
  endloop
 endfacet
 facet normal -0.609097 -0 -0.793095
  outer loop
   vertex 0.9375 0.48 0.48
   vertex 0.9375 0.96 0.48
   vertex 1.25 0.96 0.24
  endloop
 endfacet
 facet normal -0.609097 -0 -0.793095
  outer loop
   vertex 0.9375 0.48 0.48
   vertex 1.25 0.96 0.24
   vertex 1.25 0.48 0.24
  endloop
 endfacet
 facet normal 0.477228 0.621391 0.621391
  outer loop
   vertex 0.9375 0.48 0
   vertex 0.625 0.72 0
   vertex 0.625 0.48 0.24
  endloop
 endfacet
 facet normal 0.477228 0.621391 -0.621391
  outer loop
   vertex 0.625 0.24 0.48
   vertex 0.3125 0.48 0.48
   vertex 0.625 0.48 0.72
  endloop
 endfacet
 facet normal -0.477228 -0.621391 0.621391
  outer loop
   vertex 0 0 0.72
   vertex 0.3125 0 0.96
   vertex 0 0.24 0.96
  endloop
 endfacet
 facet normal -0.477228 -0.621391 0.621391
  outer loop
   vertex 1.25 0.24 0.48
   vertex 1.25 0.48 0.72
   vertex 0.9375 0.48 0.48
  endloop
 endfacet
 facet normal 0.477228 0.621391 -0.621391
  outer loop
   vertex 0.625 0.24 0.48
   vertex 0.625 0.48 0.72
   vertex 0.9375 0 0.48
  endloop
 endfacet
 facet normal 0.477228 0.621391 -0.621391
  outer loop
   vertex 0.9375 0 0.48
   vertex 0.625 0.48 0.72
   vertex 0.9375 0.48 0.96
  endloop
 endfacet
 facet normal 1 0 0
  outer loop
   vertex 0.9375 0 0.48
   vertex 0.9375 0.48 0.96
   vertex 0.9375 0 0.96
  endloop
 endfacet
 facet normal 0.477228 0.621391 -0.621391
  outer loop
   vertex 0 0.72 0.48
   vertex 0 0.96 0.72
   vertex 0.3125 0.96 0.96
  endloop
 endfacet
 facet normal 0.477228 0.621391 -0.621391
  outer loop
   vertex 0.3125 0.48 0.48
   vertex 0 0.72 0.48
   vertex 0.3125 0.96 0.96
  endloop
 endfacet
 facet normal 0.477228 0.621391 -0.621391
  outer loop
   vertex 0.3125 0.48 0.48
   vertex 0.3125 0.96 0.96
   vertex 0.625 0.72 0.96
  endloop
 endfacet
 facet normal 0.477228 0.621391 -0.621391
  outer loop
   vertex 0.3125 0.48 0.48
   vertex 0.625 0.72 0.96
   vertex 0.625 0.48 0.72
  endloop
 endfacet
 facet normal -0.609097 0 0.793095
  outer loop
   vertex 1.25 0.48 0.72
   vertex 1.25 0.96 0.72
   vertex 0.9375 0.96 0.48
  endloop
 endfacet
 facet normal -0.609097 0 0.793095
  outer loop
   vertex 1.25 0.48 0.72
   vertex 0.9375 0.96 0.48
   vertex 0.9375 0.48 0.48
  endloop
 endfacet
 facet normal 0.477228 0.621391 -0.621391
  outer loop
   vertex 0.625 0.48 0.72
   vertex 0.625 0.72 0.96
   vertex 0.9375 0.48 0.96
  endloop
 endfacet
endsolid
